<?xml version="1.0" encoding="UTF-8" standalone="no"?>
<svg
   width="210mm"
   height="297mm"
   viewBox="0 0 210 297"
   version="1.1"
   id="svg1"
   xml:space="preserve"
   xmlns="http://www.w3.org/2000/svg"
   xmlns:svg="http://www.w3.org/2000/svg">
  <g id="layer1">
    <path
       style="fill:#06ac7d;stroke-width:0.52142"
       d="m 38.884729,243.01276 c -0.75556,-0.14576 -0.728576,-18.28228 0.03282,-22.0588 5.237169,-25.97642 39.192571,-25.42574 44.111721,0.71539 0.78067,4.1486 0.34253,21.31648 -0.54404,21.31707 -0.25047,1.7e-4 -10.113659,0.0157 -21.918199,0.0345 -11.804539,0.0188 -21.561576,0.0151 -21.682301,-0.008 z m 50.223211,0.003 -1.33738,-0.0394 -0.0755,-0.58143 c -0.0415,-0.31998 -0.0976,-4.71005 -0.12465,-9.75589 -0.0463,-8.64067 -0.0663,-9.27056 -0.34414,-10.82978 -0.67348,-3.77951 -1.58691,-6.56948 -3.14159,-9.5956 -0.75979,-1.47889 -0.82364,-1.2895 0.66984,-1.98675 11.03997,-5.15422 24.177,1.96829 27.02617,14.65278 0.32696,1.4556 0.57477,16.47006 0.28999,17.5693 l -0.12125,0.46799 -10.75205,0.069 c -5.91363,0.038 -11.35387,0.0513 -12.08944,0.0296 z m 27.81067,0.0235 c -0.40564,-0.0936 -0.46802,-1.04154 -0.46802,-7.11244 v -4.94834 l 0.37939,0.1061 c 0.5975,0.16709 6.1512,0.10507 7.82917,-0.0874 17.45871,-2.00296 31.13408,-14.49051 34.61239,-31.60601 0.54067,-2.66038 0.66646,-4.43128 0.75514,-10.63048 l 0.0879,-6.14682 0.51682,-1.04524 c 2.36163,-4.7762 8.53383,-4.98932 11.18406,-0.38617 1.2751,2.21468 1.07535,12.43696 -0.38843,19.87869 -4.20197,21.36238 -20.93682,37.86516 -41.93934,41.35776 -2.85205,0.47428 -11.37902,0.89515 -12.56911,0.62038 z M 10.259472,234.60511 c 0.05919,-7.93863 0.07813,-8.45163 0.358893,-9.71907 2.753091,-12.42824 15.045374,-19.35214 26.489247,-14.92064 1.309067,0.50692 1.300937,0.42033 0.247412,2.63521 -1.167128,2.45371 -1.400556,3.06198 -1.967317,5.12642 -1.064274,3.87664 -1.180795,5.34602 -1.166107,14.70523 0.0068,4.32501 -0.02913,8.46895 -0.07981,9.20876 l -0.09215,1.3451 H 22.123314 10.196985 Z M 115.30093,223.02806 c -0.0506,-0.0506 -0.092,-0.22993 -0.092,-0.39855 0,-1.70546 -2.43982,-6.54119 -4.56696,-9.05172 -1.53697,-1.81399 -1.55509,-1.70985 0.3315,-1.90548 8.2288,-0.85329 14.44076,-4.50937 19.45102,-11.448 l 0.52293,-0.7242 -0.22015,-0.75731 c -0.92952,-3.19744 0.0285,-6.27109 2.98586,-9.57918 l 0.94151,-1.05319 0.022,-19.82452 0.022,-19.82452 -0.77483,-0.75652 c -4.26653,-4.16567 -4.43635,-10.79965 -0.37915,-14.81101 9.74231,-9.63224 23.72644,4.64805 14.23207,14.53348 l -0.90619,0.94353 0.0506,19.87898 0.0506,19.87898 0.99532,1.11872 c 5.71898,6.42795 1.69583,17.26534 -6.43779,17.34187 l -0.95839,0.009 -0.93259,1.25938 c -5.60601,7.57037 -13.10912,12.52175 -22.59193,14.90866 -1.53158,0.38551 -1.60981,0.39723 -1.74547,0.26158 z m 27.75701,-22.60336 c 4.05353,-2.21739 2.38127,-8.55238 -2.25759,-8.55238 -5.07443,0 -6.4624,7.09705 -1.72374,8.81391 1.0473,0.37945 3.05008,0.24788 3.98133,-0.26153 z m -0.33506,-56.27579 c 2.12831,-1.04128 3.15765,-3.82675 2.18345,-5.90857 -2.02613,-4.32973 -8.35331,-3.18928 -8.69617,1.56744 -0.24576,3.40965 3.421,5.85377 6.51272,4.34113 z M 27.673994,205.67047 c -8.916778,-1.66005 -12.151624,-12.85054 -5.455135,-18.87126 7.45892,-6.70621 19.069736,-1.59515 18.732873,8.24617 -0.23505,6.86692 -6.506745,11.88565 -13.277738,10.62509 z m 62.482756,0.008 c -8.46865,-1.92649 -11.55258,-12.04557 -5.58728,-18.33311 7.21303,-7.60267 19.69076,-2.25376 19.15661,8.21199 -0.33831,6.62879 -7.0184,11.61133 -13.56933,10.12111 z m 20.63752,-21.04243 c 0,-20.76079 -0.12247,-19.36208 1.8699,-21.35445 3.67954,-3.67955 9.84069,-1.52122 10.56721,3.70182 0.2415,1.73613 0.0739,15.1307 -0.21558,17.23196 -1.14015,8.27546 -4.16623,13.27975 -10.22112,16.90289 -0.60702,0.36323 -1.26846,0.77502 -1.46987,0.91508 -0.2014,0.14006 -0.40317,0.25465 -0.44836,0.25465 -0.0452,0 -0.0822,-7.94337 -0.0822,-17.65195 z M 59.563236,198.39252 C 48.932506,197.5571 44.51518,183.3924 52.703062,176.39451 c 5.413838,-4.62701 12.494745,-4.30019 17.333249,0.80001 7.993039,8.42535 1.228274,22.11754 -10.473075,21.198 z m 25.062854,-23.2623 c -0.83485,-0.28848 -1.70575,-0.96672 -2.65033,-2.06404 -3.64665,-4.23626 -5.01904,-5.81289 -6.08644,-6.99219 -0.68677,-0.75877 -1.4288,-1.64769 -1.64896,-1.97536 -1.922124,-2.8609 1.00333,-6.61773 4.0626,-5.21715 1.07689,0.49302 5.7568,5.33903 6.83056,7.07299 0.29925,0.48324 0.37229,0.42889 1.97169,-1.46701 0.80014,-0.94846 1.87389,-2.22113 2.38611,-2.82816 1.31164,-1.55439 3.52853,-4.06529 4.74788,-5.37756 0.56908,-0.61245 2.25419,-2.47775 3.74469,-4.14512 3.73226,-4.17516 4.75043,-4.7029 7.01611,-3.63662 3.12963,1.47287 2.92844,3.68666 -0.68567,7.54448 -1.17837,1.25784 -2.70122,2.91808 -3.38412,3.68942 -0.6829,0.77135 -2.32806,2.63262 -3.65591,4.13616 -1.32786,1.50353 -2.94198,3.32844 -3.58694,4.05535 -0.64496,0.72692 -1.98741,2.31496 -2.98324,3.52899 -3.13782,3.82539 -4.04955,4.37678 -6.07803,3.67582 z m 79.46172,-16.00413 c -1.47959,-0.51124 -2.745,-1.72979 -3.60139,-3.468 l -0.50977,-1.03469 v -21.06603 -21.06603 l -0.91584,0.93234 c -9.18453,9.34999 -21.44755,11.62927 -33.66868,6.25787 -2.32954,-1.02387 -2.04325,-2.35981 -2.04563,9.5459 -0.002,11.27008 0.003,11.19556 -0.86365,12.82497 -2.46696,4.63942 -8.84224,4.45232 -11.1824,-0.32818 -0.81227,-1.65931 -0.7903,-1.07757 -0.77689,-20.57098 0.0108,-15.73971 -0.0142,-18.12158 -0.19828,-18.83181 -0.85494,-3.299308 -1.18442,-5.863327 -1.19418,-9.293112 -0.008,-2.672366 -0.01,-2.691072 -0.26852,-2.348922 -0.71549,0.946002 -4.35426,5.918743 -5.35038,7.311826 -2.08114,2.910508 -2.40422,3.349358 -6.85566,9.312228 -2.43572,3.26273 -4.95384,6.67456 -5.59581,7.58185 -3.84649,5.43608 -8.54634,6.44063 -11.91137,2.54593 -2.90603,-3.36344 -2.45399,-5.69723 2.33581,-12.0592 1.59954,-2.12457 3.69243,-4.96061 4.65087,-6.302301 1.77768,-2.488545 5.33217,-7.25617 8.36393,-11.218491 2.41924,-3.161799 4.13949,-5.458904 6.09555,-8.139579 0.94123,-1.289917 2.7053,-3.641734 3.92015,-5.226261 1.21485,-1.584527 3.45191,-4.595482 4.97125,-6.69101 1.51934,-2.095525 4.31563,-5.889785 6.21399,-8.431675 1.89835,-2.5419 3.91454,-5.26184 4.48041,-6.04432 0.56587,-0.78248 2.42569,-3.30496 4.13293,-5.60552 1.70725,-2.30055 3.7249,-5.03521 4.48367,-6.07702 8.89511,-12.21312 9.1837,-12.53257 11.11525,-12.3038 1.65169,0.19562 3.17592,1.84481 8.12592,8.79213 0.56486,0.79277 3.45541,4.7007 6.42343,8.68426 2.96803,3.98357 6.1058,8.22994 6.97282,9.43639 0.86702,1.20645 2.6289,3.59659 3.91529,5.31142 3.93571,5.246554 8.85841,11.830098 10.58378,14.154595 0.90113,1.21404 2.32707,3.094448 3.16875,4.178687 1.41126,1.817979 12.229,16.491439 15.76747,21.387415 0.83995,1.16219 2.49476,3.41592 3.67734,5.00828 4.25952,5.73547 4.59067,8.04121 1.61354,11.23462 -3.21979,3.45368 -7.72408,2.74825 -10.93756,-1.71298 -0.45526,-0.63203 -1.50321,-2.05888 -2.32878,-3.17078 -0.82555,-1.11189 -2.90108,-3.94615 -4.61228,-6.29835 -5.05841,-6.953279 -9.04808,-12.266808 -9.78894,-13.037123 -0.17342,-0.180308 -0.19295,3.752181 -0.15178,30.557913 l 0.0472,30.76485 -0.60993,1.21851 c -1.47589,2.94852 -4.69062,4.32114 -7.69169,3.28418 z m -23.44692,-43.13127 c 22.25536,-2.91743 27.45705,-32.816534 7.43887,-42.758336 -19.02426,-9.448181 -39.20292,10.542397 -30.40662,30.123186 3.75008,8.34776 13.74195,13.84454 22.96775,12.63515 z m -13.98133,-8.90988 c -1.36856,-0.62044 -1.99832,-1.57448 -1.99581,-3.0235 0.003,-1.58367 0.13804,-1.76703 4.56406,-6.185289 4.66117,-4.653006 4.65078,-3.366424 0.0641,-7.939512 -5.40853,-5.392465 -6.08215,-7.259505 -3.29632,-9.136181 2.044,-1.376944 2.81037,-0.969924 8.18331,4.346179 4.53459,4.48663 3.39864,4.531726 8.1599,-0.323935 5.22499,-5.328584 6.35695,-5.81461 8.32413,-3.574122 1.9829,2.25841 1.61078,3.113779 -3.7358,8.587033 -4.74082,4.853143 -4.7275,3.485054 -0.0795,8.17135 5.21676,5.259767 5.74592,6.505807 3.57304,8.413627 -2.21337,1.94337 -2.98281,1.59315 -8.5942,-3.91177 l -3.903,-3.828932 -4.01092,4.057032 c -4.84252,4.89819 -5.35791,5.20715 -7.25295,4.34802 z m 28.17592,-37.481014 c -0.16178,-0.207421 -1.43029,-1.959931 -2.81892,-3.894463 -1.38864,-1.93454 -2.89728,-4.02252 -3.35255,-4.63997 -0.45526,-0.61744 -1.72793,-2.3492 -2.82816,-3.84835 -5.22001,-7.11271 -6.20085,-8.2606 -6.51242,-7.62158 -0.12092,0.24801 -0.70723,1.10279 -1.3029,1.89951 -0.59567,0.79671 -1.54498,2.10042 -2.10958,2.89713 -0.5646,0.79672 -2.21361,3.09373 -3.66447,5.10449 -1.45085,2.01075 -3.05162,4.24568 -3.55725,4.96652 -0.50564,0.72084 -1.05018,1.48133 -1.21009,1.689997 -0.40219,0.524783 -0.1576,0.509875 1.65619,-0.100947 7.93447,-2.67206 16.76519,-1.63039 23.80541,2.808084 2.11226,1.331664 2.46341,1.468732 1.89474,0.739579 z"
       id="path1" />
  </g>
</svg>
